<svg preserveAspectRatio="none" overflow="visible" style="display: block;" width="17.3646" height="17.4509" viewBox="0 0 17.3646 17.4509" fill="none" xmlns="http://www.w3.org/2000/svg">
<path id="Vector" fill-rule="evenodd" clip-rule="evenodd" d="M7.33809 0.00138983C7.18558 0.0121532 7.04359 0.0830178 6.9433 0.198414C6.84301 0.313811 6.79263 0.4643 6.80323 0.616819L6.90352 2.05425C6.16295 4.9711 3.22209 8.90882 1.52066 11.0114C1.07923 11.5591 1.50352 12.3974 2.20466 12.3502L7.5978 11.9825L7.6938 13.3514L0.825518 13.8357C0.692927 13.8448 0.564084 13.8836 0.448524 13.9492C0.332964 14.0149 0.233647 14.1057 0.157925 14.2149C0.0822023 14.3241 0.0320127 14.449 0.0110714 14.5802C-0.00986983 14.7115 -0.00102687 14.8457 0.0369461 14.9731L0.995232 17.4142C1.25154 17.4134 1.50499 17.3603 1.74009 17.2582C2.01437 17.1494 2.30066 16.978 2.59037 16.8057C2.89037 16.6265 3.1938 16.4457 3.49123 16.3282C3.86842 16.1743 4.27226 16.0962 4.67965 16.0984C5.08705 16.1006 5.49002 16.1831 5.86552 16.3411C6.17066 16.4654 6.47666 16.6565 6.77409 16.8417C7.03466 17.0045 7.28838 17.1622 7.52495 17.2651C8.09066 17.512 8.68809 17.5137 9.25295 17.2651C9.48609 17.1622 9.73552 17.0062 9.99352 16.8451C10.2901 16.6591 10.5978 16.4662 10.9038 16.3411C11.665 16.0213 12.522 16.0166 13.2867 16.3282C13.5884 16.4482 13.8978 16.6317 14.2038 16.8125C14.4549 16.9617 14.7027 17.1091 14.9384 17.2154L17.1909 14.1468C17.6375 13.5374 17.1669 12.6837 16.4135 12.7368L8.84409 13.2708L8.74809 11.9028L11.1472 11.7357C15.5478 11.3611 17.3701 6.06739 7.95609 0.581675L7.95352 0.536247C7.94275 0.38374 7.87189 0.241743 7.75649 0.141454C7.6411 0.0411654 7.49061 -0.00921223 7.33809 0.00138983ZM9.88038 6.48996C10.0449 8.84282 9.10466 9.98968 8.64352 10.4045L8.05895 2.04225C8.59723 2.64139 9.71752 4.15168 9.88038 6.48996Z" fill="url(#paint0_linear_0_7)"/>
<defs>
<linearGradient id="paint0_linear_0_7" x1="7.79923" y1="-0.00461014" x2="8.6898" y2="11.8197" gradientUnits="userSpaceOnUse">
<stop stop-color="white"/>
<stop offset="1" stop-color="white" stop-opacity="0.8"/>
</linearGradient>
</defs>
</svg>
