<svg preserveAspectRatio="none" overflow="visible" style="display: block;" width="16" height="16" viewBox="0 0 16 16" fill="none" xmlns="http://www.w3.org/2000/svg">
<g id="Grid interface search">
<path id="Vector" fill-rule="evenodd" clip-rule="evenodd" d="M4.9727 8.72656H3.3147C2.35936 8.72656 1.58203 9.5039 1.58203 10.4592V12.1172C1.58203 13.0726 2.35936 13.8499 3.3147 13.8499H4.9727C5.92803 13.8499 6.70537 13.0726 6.70537 12.1172V10.4592C6.70537 9.5039 5.92803 8.72656 4.9727 8.72656Z" fill="#171717"/>
<path id="Vector_2" fill-rule="evenodd" clip-rule="evenodd" d="M11.3235 12.7629C10.3915 12.7629 9.63281 12.0042 9.63281 11.0722C9.63281 10.1395 10.3915 9.38086 11.3235 9.38086C12.2555 9.38086 13.0141 10.1395 13.0141 11.0722C13.0141 12.0042 12.2555 12.7629 11.3235 12.7629ZM14.2701 13.4229L13.4995 12.6535C13.8228 12.2095 14.0141 11.6629 14.0141 11.0722C14.0141 9.58819 12.8075 8.38086 11.3235 8.38086C9.83948 8.38086 8.63281 9.58819 8.63281 11.0722C8.63281 12.5555 9.83948 13.7629 11.3235 13.7629C11.8561 13.7629 12.3528 13.6075 12.7708 13.3395L13.5641 14.1315C13.6621 14.2289 13.7895 14.2769 13.9175 14.2769C14.0455 14.2769 14.1735 14.2282 14.2715 14.1302C14.4661 13.9349 14.4661 13.6182 14.2701 13.4229Z" fill="#171717"/>
<path id="Vector_3" fill-rule="evenodd" clip-rule="evenodd" d="M4.9727 1.72363H3.3147C2.35936 1.72363 1.58203 2.50097 1.58203 3.4563V5.1143C1.58203 6.06963 2.35936 6.84695 3.3147 6.84695H4.9727C5.92803 6.84695 6.70537 6.06963 6.70537 5.1143V3.4563C6.70537 2.50097 5.92803 1.72363 4.9727 1.72363Z" fill="#171717"/>
<path id="Vector_4" fill-rule="evenodd" clip-rule="evenodd" d="M10.3193 6.84699H11.9766C12.9326 6.84699 13.7099 6.06963 13.7099 5.1143V3.4563C13.7099 2.50097 12.9326 1.72363 11.9766 1.72363H10.3193C9.36327 1.72363 8.58594 2.50097 8.58594 3.4563V5.1143C8.58594 6.06963 9.36327 6.84699 10.3193 6.84699Z" fill="#171717"/>
</g>
</svg>
