<svg preserveAspectRatio="none" overflow="visible" style="display: block;" width="10.3993" height="9.99986" viewBox="0 0 10.3993 9.99986" fill="none" xmlns="http://www.w3.org/2000/svg">
<g id="Group 44">
<path id="Vector" fill-rule="evenodd" clip-rule="evenodd" d="M9.98472 7.9789H9.25924V7.25342C9.25924 6.99433 9.10378 6.83887 8.84469 6.83887C8.58559 6.83887 8.43013 7.04615 8.43013 7.25342V7.9789H7.65284C7.39374 7.9789 7.23828 8.13436 7.23828 8.39345C7.23828 8.65255 7.44556 8.80801 7.65284 8.80801H8.43013V9.5853C8.43013 9.8444 8.63741 9.99986 8.84469 9.99986C9.05196 9.99986 9.25924 9.79258 9.25924 9.5853V8.80801H9.98472C10.2438 8.80801 10.3993 8.65255 10.3993 8.39345C10.3993 8.13436 10.192 7.9789 9.98472 7.9789Z" fill="white"/>
<path id="Vector_2" fill-rule="evenodd" clip-rule="evenodd" d="M9.2809 5.95927C7.72631 5.95927 6.48264 7.20294 6.48264 8.75752C6.48264 8.91231 6.49544 9.05424 6.50773 9.1897C6.51648 9.28681 6.52498 9.38055 6.52825 9.47336C6.53058 9.54083 6.48544 9.5999 6.42057 9.61845C5.93833 9.75609 5.45299 9.84573 4.92288 9.84573C2.22824 9.84573 0 7.61749 0 4.92288C0 2.22824 2.22824 0 4.92288 0C7.61749 0 9.84573 2.22824 9.84573 4.92288C9.84573 5.20783 9.82288 5.46486 9.77987 5.73468C9.74044 5.98202 9.62814 5.97569 9.43107 5.9646C9.38558 5.96207 9.33557 5.95927 9.2809 5.95927ZM2.60717 3.62425C2.60717 3.4947 2.65899 3.36516 2.75227 3.27188C2.85072 3.17342 2.97509 3.1216 3.115 3.1216C3.38965 3.1216 3.61765 3.34961 3.61765 3.62425C3.61765 3.90408 3.38965 4.13206 3.115 4.13206C2.83518 4.13206 2.60717 3.90408 2.60717 3.62425ZM4.68005 7.2931C3.66439 7.2931 2.84046 6.57281 2.84046 5.6867C2.84046 5.5416 2.95964 5.4276 3.09955 5.4276H6.26055C6.40564 5.4276 6.51964 5.5416 6.51964 5.6867C6.51964 6.57281 5.69571 7.2931 4.68005 7.2931ZM6.48327 3.1216C6.34335 3.1216 6.21899 3.17342 6.12053 3.27188C6.02726 3.36516 5.97544 3.4947 5.97544 3.62425C5.97544 3.90408 6.20344 4.13206 6.48327 4.13206C6.75791 4.13206 6.98592 3.90408 6.98592 3.62425C6.98592 3.34961 6.75791 3.1216 6.48327 3.1216Z" fill="white"/>
</g>
</svg>
